<svg width="380" height="380" viewBox="0 0 380 380" fill="none" xmlns="http://www.w3.org/2000/svg">
<g clip-path="url(#clip0_13_286)">
<path d="M178.369 118.75L178.299 343.342C178.299 351.618 169.927 358.352 160.557 358.352C151.176 358.352 143.552 351.655 143.552 343.342C143.552 337.38 138.054 332.512 131.262 332.512C124.493 332.512 118.995 337.38 118.995 343.342C118.995 353.15 123.306 362.366 131.167 369.3C139.028 376.199 149.454 380 160.557 380C171.66 380 182.086 376.2 189.947 369.265C197.713 362.425 202.012 353.328 202.072 343.662L202.119 343.638V118.75H178.369Z" fill="#464646"/>
<path d="M189.342 0C92.7623 0 12.9635 73.2567 0.244263 165.917C10.9918 162.711 34.3377 153.829 47.3053 153.829C82.0989 153.829 108.569 172.033 118.46 189.965L118.495 189.977L118.507 189.942C128.399 172.035 156.033 154.198 190.814 154.198C225.608 154.198 252.065 172.035 261.969 189.942L262.041 190.001L262.088 189.954C262.088 189.954 297.737 154.21 332.518 154.21C347.398 154.21 367.942 161.822 379.757 165.943C367.716 72.5565 286.479 0 189.342 0Z" fill="#484848"/>
<path d="M192.631 0.1547L192.169 0.142487C144.562 27.0153 118.757 86.1292 118.52 189.988L118.532 189.952C128.423 172.045 156.057 154.209 190.839 154.209C225.632 154.209 252.102 172.045 262.006 189.952C261.803 86.117 240.416 29.4376 192.631 0.1547Z" fill="#D9D9D9"/>
</g>
<defs>
<clipPath id="clip0_13_286">
<rect width="380" height="380" fill="white"/>
</clipPath>
</defs>
</svg>
